nColumns=19
nRows=59
DataType=double
version=3
OpenSimVersion=4.1
endheader
time	ground_force_calcn_r_vx	ground_force_calcn_r_vy	ground_force_calcn_r_vz	ground_force_calcn_r_px	ground_force_calcn_r_py	ground_force_calcn_r_pz	ground_force_calcn_r_mx	ground_force_calcn_r_my	ground_force_calcn_r_mz	ground_force_calcn_l_vx	ground_force_calcn_l_vy	ground_force_calcn_l_vz	ground_force_calcn_l_px	ground_force_calcn_l_py	ground_force_calcn_l_pz	ground_force_calcn_l_mx	ground_force_calcn_l_my	ground_force_calcn_l_mz
0	-130.183	640.937	-3.33171	0.166268	0	-0.176387	0.13464	-0.662881	0.00344578	0	0	0	0	0	0	0	0	0
0.01	-132.529	656.725	-6.61573	0.169822	0	-0.174982	0.117037	-0.579957	0.00584238	0	0	0	0	0	0	0	0	0
0.02	-134.679	673.807	-9.9433	0.174263	0	-0.173243	0.0929415	-0.464992	0.00686183	0	0	0	0	0	0	0	0	0
0.03	-136.439	691.586	-13.1788	0.178866	0	-0.171454	0.0633361	-0.32104	0.00611771	0	0	0	0	0	0	0	0	0
0.04	-137.632	709.335	-16.2147	0.183524	0	-0.16965	0.0300112	-0.154673	0.00353568	0	0	0	0	0	0	0	0	0
0.05	-138.128	726.261	-18.9768	0.188152	0	-0.167854	-0.00498308	0.0262004	-0.000684601	0	0	0	0	0	0	0	0	0
0.06	-137.857	741.58	-21.4287	0.192695	0	-0.166075	-0.0396362	0.213217	-0.00616111	0	0	0	0	0	0	0	0	0
0.07	-136.804	754.583	-23.5698	0.19713	0	-0.164313	-0.0722024	0.398253	-0.0124397	0	0	0	0	0	0	0	0	0
0.08	-135	764.692	-25.42	0.201444	0	-0.162567	-0.101439	0.574587	-0.0191005	0	0	0	0	0	0	0	0	0
0.09	-132.501	771.491	-27	0.205639	0	-0.160833	-0.126639	0.737357	-0.0258054	0	0	0	0	0	0	0	0	0
0.1	-129.377	774.755	-28.3189	0.209718	0	-0.15911	-0.14745	0.882981	-0.0322748	0	0	0	0	0	0	0	0	0
0.11	-125.705	774.459	-29.3698	0.21369	0	-0.157396	-0.163643	1.00819	-0.0382336	0	0	0	0	0	0	0	0	0
0.12	-121.567	770.767	-30.1305	0.217559	0	-0.155695	-0.174944	1.10919	-0.0433599	0	0	0	0	0	0	0	0	0
0.13	-117.056	764.011	-30.5671	0.22133	0	-0.154012	-0.180995	1.18134	-0.0472638	0	0	0	0	0	0	0	0	0
0.14	-112.264	754.666	-30.6421	0.225006	0	-0.15235	-0.181448	1.21973	-0.0495254	0	0	0	0	0	0	0	0	0
0.15	-107.285	743.324	-30.3291	0.228584	0	-0.150721	-0.176132	1.22032	-0.0497917	0	0	0	0	0	0	0	0	0
0.16	-102.201	730.662	-29.6279	0.232052	0	-0.149132	-0.165232	1.18128	-0.0479003	0	0	0	0	0	0	0	0	0
0.17	-97.0823	717.39	-28.5746	0.235392	0	-0.147596	-0.149398	1.10397	-0.0439728	0	0	0	0	0	0	0	0	0
0.18	-91.9862	704.189	-27.2431	0.238576	0	-0.146125	-0.129712	0.992991	-0.0384161	0	0	0	0	0	0	0	0	0
0.19	-86.9604	691.663	-25.7364	0.241571	0	-0.144731	-0.107547	0.855407	-0.0318293	0	0	0	0	0	0	0	0	0
0.2	-82.0422	680.305	-24.17	0.244343	0	-0.143427	-0.0843632	0.699551	-0.0248538	0	0	0	0	0	0	0	0	0
0.21	-77.2572	670.488	-22.6513	0.246859	0	-0.142227	-0.0614974	0.533715	-0.0180307	0	0	0	0	0	0	0	0	0
0.22	-72.6172	662.461	-21.2626	0.249092	0	-0.141142	-0.0400046	0.364948	-0.0117135	0	0	0	0	0	0	0	0	0
0.23	-68.1198	656.359	-20.0508	0.25102	0	-0.140189	-0.0205658	0.198159	-0.00605346	0	0	0	0	0	0	0	0	0
0.24	-63.7499	652.214	-19.0265	0.25263	0	-0.139377	-0.00349183	0.0357243	-0.00104215	0	0	0	0	0	0	0	0	0
0.25	-59.4845	649.975	-18.171	0.253924	0	-0.138722	0.0112033	-0.122416	0.00342232	0	0	0	0	0	0	0	0	0
0.26	-55.2971	649.525	-17.4494	0.254916	0	-0.138232	0.0236936	-0.278307	0.00747668	0	0	0	0	0	0	0	0	0
0.27	-51.1625	650.694	-16.8225	0.255632	0	-0.137914	0.0342302	-0.435346	0.011255	0	0	0	0	0	0	0	0	0
0.28	-47.06	653.278	-16.2557	0.25611	0	-0.137768	0.0430534	-0.59766	0.0148717	0	0	0	0	0	0	0	0	0
0.29	-42.974	657.052	-15.7251	0.256396	0	-0.137793	0.0503219	-0.769398	0.0184139	0	0	0	0	0	0	0	0	0
0.3	-38.8963	661.787	-15.2204	0.256541	0	-0.137981	0.0560729	-0.954033	0.0219418	0	0	0	0	0	0	0	0	0
0.31	-34.8258	667.273	-14.7434	0.2566	0	-0.138323	0.0602335	-1.15409	0.0254997	0	0	0	0	0	0	0	0	0
0.32	-30.7674	673.326	-14.3045	0.256627	0	-0.138806	0.0626583	-1.37124	0.0291313	0	0	0	0	0	0	0	0	0
0.33	-26.7316	679.8	-13.9176	0.256675	0	-0.139416	0.063169	-1.60643	0.0328886	0	0	0	0	0	0	0	0	0
0.34	-22.7339	686.576	-13.5963	0.256799	0	-0.140137	0.0615865	-1.85994	0.0368325	0	0	0	0	0	0	0	0	0
0.35	-18.7913	693.558	-13.3493	0.257048	0	-0.14095	0.057745	-2.13128	0.0410219	0	0	0	0	0	0	0	0	0
0.36	-14.9159	700.67	-13.1802	0.257469	0	-0.141834	0.0514899	-2.41872	0.0454983	0	0	0	0	0	0	0	0	0
0.37	-11.1105	707.859	-13.0891	0.2581	0	-0.142768	0.0426763	-2.71894	0.0502764	0	0	0	0	0	0	0	0	0
0.38	-7.36342	715.099	-13.0766	0.258969	0	-0.143729	0.0311707	-3.02715	0.0553557	0	0	0	0	0	0	0	0	0
0.39	-3.64709	722.385	-13.1481	0.260097	0	-0.144693	0.0168483	-3.33717	0.0607397	0	0	0	0	0	0	0	0	0
0.4	0.0784937	729.721	-13.3147	0.261498	0	-0.145636	-0.000391748	-3.6419	0.066451	0	0	0	0	0	0	0	0	0
0.41	3.86149	737.11	-13.5906	0.263179	0	-0.146534	-0.020608	-3.93381	0.0725301	0	0	0	0	0	0	0	0	0
0.42	7.7527	744.549	-13.9891	0.265141	0	-0.147368	-0.0437872	-4.20521	0.0790101	0	0	0	0	0	0	0	0	0
0.43	11.7996	752.026	-14.5157	0.26738	0	-0.14812	-0.0698026	-4.44875	0.0858705	0	0	0	0	0	0	0	0	0
0.44	16.0414	759.522	-15.1647	0.269888	0	-0.148781	-0.0983748	-4.65782	0.0929986	0	0	0	0	0	0	0	0	0
0.45	20.5049	767.004	-15.9178	0.272648	0	-0.149345	-0.129043	-4.82695	0.100175	0	0	0	0	0	0	0	0	0
0.46	25.2058	774.431	-16.7446	0.275638	0	-0.149813	-0.161183	-4.95224	0.107077	0	0	0	0	0	0	0	0	0
0.47	30.151	781.749	-17.6047	0.278834	0	-0.150193	-0.194061	-5.03158	0.113309	0	0	0	0	0	0	0	0	0
0.48	35.3372	788.896	-18.4513	0.282205	0	-0.150493	-0.226857	-5.06454	0.118453	0	0	0	0	0	0	0	0	0
0.49	40.7494	795.785	-19.2341	0.285719	0	-0.150731	-0.258704	-5.05217	0.122111	0	0	0	0	0	0	0	0	0
0.5	46.3622	802.297	-19.9032	0.289343	0	-0.15092	-0.288753	-4.99686	0.123961	0	0	0	0	0	0	0	0	0
0.51	52.1426	808.272	-20.4109	0.293045	0	-0.151077	-0.316231	-4.90195	0.123786	0	0	0	0	0	0	0	0	0
0.52	58.0501	813.507	-20.715	0.296795	0	-0.151218	-0.340485	-4.77152	0.121501	0	0	0	0	0	0	0	0	0
0.53	64.0373	817.753	-20.7797	0.300562	0	-0.151357	-0.36102	-4.61022	0.117149	0	0	0	0	0	0	0	0	0
0.54	70.0485	820.711	-20.5751	0.304321	0	-0.151501	-0.377524	-4.4232	0.110889	0	0	0	0	0	0	0	0	0
0.55	76.0188	822.032	-20.0781	0.308046	0	-0.151661	-0.389866	-4.21582	0.102971	0	0	0	0	0	0	0	0	0
0.56	81.8742	821.314	-19.2735	0.311717	0	-0.151841	-0.398075	-3.99326	0.0937086	0	0	0	0	0	0	0	0	0
0.57	87.531	818.117	-18.1568	0.315316	0	-0.15204	-0.402299	-3.76013	0.0834498	0	0	0	0	0	0	0	0	0
0.58	92.8906	811.963	-16.735	0.318826	0	-0.152258	-0.402702	-3.52005	0.0725501	6.0058	21.9071	-6.43126	0.754664	0	-0.188335	0.115198	0.420204	-0.123359
